<svg id="Ebene_1" data-name="Ebene 1" xmlns="http://www.w3.org/2000/svg" width="329.45mm" height="61.38mm" viewBox="0 0 933.88 173.98">
  <defs>
    <style>
      .cls-1 {
        fill: #80ba27;
      }

      .cls-2 {
        fill: #4b5c66;
      }

      .cls-3 {
        fill: #4c5d67;
      }
    </style>
  </defs>
  <title>THM_StudiumPlus</title>
  <g>
    <rect class="cls-1" x="54.99" y="110.48" width="18.33" height="18.33"/>
    <rect class="cls-1" x="54.99" y="82.99" width="18.33" height="18.33"/>
    <rect class="cls-1" x="54.99" y="55.5" width="18.33" height="18.33"/>
    <rect class="cls-1" x="54.99" y="28.01" width="18.33" height="18.33"/>
    <rect class="cls-1" x="27.49" y="55.5" width="18.33" height="18.33"/>
    <rect class="cls-1" x="27.49" y="28.01" width="18.33" height="18.33"/>
    <rect class="cls-1" y="55.5" width="18.33" height="18.33"/>
    <rect class="cls-1" x="27.49" y="110.48" width="18.33" height="18.33"/>
    <rect class="cls-1" x="27.49" y="82.99" width="18.33" height="18.33"/>
    <rect class="cls-1" y="110.48" width="18.33" height="18.33"/>
    <rect class="cls-1" y="82.99" width="18.33" height="18.33"/>
    <polygon class="cls-1" points="194.41 46.33 194.41 128.8 173.98 128.8 173.98 46.33 146.62 46.33 146.62 28 221.77 28 221.77 46.33 194.41 46.33"/>
    <polygon class="cls-1" points="300.56 128.8 300.56 86.68 265.12 86.68 265.12 128.8 244.68 128.8 244.68 28 265.12 28 265.12 68.58 300.56 68.58 300.56 28 321 28 321 128.8 300.56 128.8"/>
    <polygon class="cls-1" points="418.32 128.8 418.32 71.69 398.79 110.47 384.01 110.48 364.35 71.69 364.35 128.8 343.91 128.8 343.91 28 364.06 28 391.41 84.63 418.61 28 438.76 28 438.76 128.8 418.32 128.8"/>
    <path class="cls-2" d="M445.73,184.34v-22h-2.65v15l-5.63-15H435v22h2.65v-15l5.69,15h2.41Zm-14.7,0V182h-5.84v-7.48h5v-2.37h-5v-7.39H431v-2.38h-8.49v22H431Zm-12.48-5.9c0-3.46-.59-5-3.08-6l-2.48-1c-1.76-.74-2.1-1.39-2.1-3.55a3.88,3.88,0,0,1,.77-2.63,2.24,2.24,0,0,1,1.71-.68,2.16,2.16,0,0,1,1.79.74,3.88,3.88,0,0,1,.68,2.66h2.65c0-2-.34-3.43-1.45-4.51a5.07,5.07,0,0,0-3.65-1.27,5,5,0,0,0-3.49,1.27,5.93,5.93,0,0,0-1.66,4.51c0,3.34.74,4.57,3,5.5l2.5,1c1.79,0.74,2.17,1.51,2.17,4,0,1.45-.13,2.29-0.71,2.94a2.83,2.83,0,0,1-3.71,0c-0.59-.62-0.74-1.42-0.74-2.88h-2.65c0,2.35.34,3.62,1.36,4.63a5.26,5.26,0,0,0,3.86,1.33,5.46,5.46,0,0,0,3.89-1.33c1-1,1.36-2.5,1.36-4.79m-14.05,0c0-3.46-.59-5-3.09-6l-2.47-1c-1.76-.74-2.1-1.39-2.1-3.55a3.87,3.87,0,0,1,.77-2.63,2.23,2.23,0,0,1,1.7-.68,2.16,2.16,0,0,1,1.79.74,3.87,3.87,0,0,1,.68,2.66h2.65c0-2-.34-3.43-1.45-4.51a5.07,5.07,0,0,0-3.65-1.27,5,5,0,0,0-3.49,1.27,5.93,5.93,0,0,0-1.66,4.51c0,3.34.74,4.57,3,5.5l2.5,1c1.79,0.74,2.17,1.51,2.17,4,0,1.45-.13,2.29-0.71,2.94a2.83,2.83,0,0,1-3.71,0c-0.59-.62-0.74-1.42-0.74-2.88H394c0,2.35.34,3.62,1.36,4.63a5.26,5.26,0,0,0,3.86,1.33,5.46,5.46,0,0,0,3.89-1.33c1-1,1.36-2.5,1.36-4.79m-13.85,5.9V182h-5.84v-7.48h5v-2.37h-5v-7.39h5.84v-2.38h-8.5v22h8.5Zm-13,0v-22H375V172h-4.88v-9.61h-2.65v22h2.65v-10H375v10h2.65Zm-13.85,0V182h-5.84V162.35h-2.65v22h8.49Zm-12.44,0V182h-5.84v-7.48h5v-2.37h-5v-7.39h5.84v-2.38h-8.49v22h8.49Zm-12.14-19.62v-2.38h-10v2.38h3.71v19.62h2.65V164.72h3.68Zm-13,0v-2.38h-10v2.38h3.71v19.62h2.65V164.72h3.68Zm-13.68-2.38h-2.65v22h2.65v-22Zm-7.07,22v-22h-2.5l-4.42,12.23L294,162.35h-2.5v22h2.65V168.93l3.43,10h1.64l3.49-10.29v15.66h2.65Zm-24.69,0V182h-5.84v-7.48h5v-2.37h-5v-7.39h5.84v-2.38h-8.49v22h8.49Zm-12.15,0V182h-5.84V162.35h-2.65v22h8.49Zm-12.92-5v-17H253V179.5a2.44,2.44,0,1,1-4.86,0V162.35H245.5v17a5.21,5.21,0,0,0,1.42,3.8,5,5,0,0,0,3.64,1.45,5.1,5.1,0,0,0,3.68-1.45,5.22,5.22,0,0,0,1.42-3.8m-14.59,5v-22h-2.65V172h-4.88v-9.61h-2.65v22h2.65v-10h4.88v10h2.65Zm-13.93-5.44h-2.62a4.52,4.52,0,0,1-.71,2.54,2.11,2.11,0,0,1-1.73.77,2.16,2.16,0,0,1-1.83-.83c-0.77-1.05-.89-2.81-0.89-8s0.12-7,.89-8a2.16,2.16,0,0,1,1.83-.83,2.1,2.1,0,0,1,1.73.77,4.16,4.16,0,0,1,.71,2.5h2.63a6.16,6.16,0,0,0-1.57-4.36,5.29,5.29,0,0,0-7.26.31c-1.45,1.67-1.61,3.55-1.61,9.64s0.16,8,1.61,9.64a4.75,4.75,0,0,0,3.77,1.6,4.84,4.84,0,0,0,3.4-1.2,6.14,6.14,0,0,0,1.67-4.48m-13.81-.46c0-3.46-.59-5-3.09-6l-2.48-1c-1.76-.74-2.1-1.39-2.1-3.55a3.86,3.86,0,0,1,.77-2.63,2.22,2.22,0,0,1,1.7-.68,2.17,2.17,0,0,1,1.8.74,3.88,3.88,0,0,1,.68,2.66h2.65c0-2-.34-3.43-1.45-4.51a5.07,5.07,0,0,0-3.65-1.27,5,5,0,0,0-3.49,1.27,5.93,5.93,0,0,0-1.67,4.51c0,3.34.74,4.57,3,5.5l2.5,1c1.79,0.74,2.16,1.51,2.16,4,0,1.45-.12,2.29-0.71,2.94a2.83,2.83,0,0,1-3.71,0c-0.59-.62-0.74-1.42-0.74-2.88h-2.65c0,2.35.34,3.62,1.36,4.63a5.27,5.27,0,0,0,3.87,1.33,5.46,5.46,0,0,0,3.89-1.33c1-1,1.36-2.5,1.36-4.79M199,184.34v-22H196.3V172h-4.88v-9.61h-2.65v22h2.65v-10h4.88v10H199Zm-14.1-5.44h-2.62a4.54,4.54,0,0,1-.71,2.54,2.1,2.1,0,0,1-1.73.77,2.16,2.16,0,0,1-1.82-.83c-0.77-1.05-.89-2.81-0.89-8s0.12-7,.89-8a2.16,2.16,0,0,1,1.82-.83,2.1,2.1,0,0,1,1.73.77,4.17,4.17,0,0,1,.71,2.5h2.62a6.15,6.15,0,0,0-1.57-4.36,5.29,5.29,0,0,0-7.26.31c-1.45,1.67-1.6,3.55-1.6,9.64s0.16,8,1.6,9.64a4.75,4.75,0,0,0,3.77,1.6,4.84,4.84,0,0,0,3.4-1.2,6.14,6.14,0,0,0,1.67-4.48M168,173.35c0,5.22-.15,7-0.93,8a2.09,2.09,0,0,1-1.79.83,2.16,2.16,0,0,1-1.82-.83c-0.77-1.05-.9-2.81-0.9-8s0.13-7,.9-8a2.16,2.16,0,0,1,1.82-.83,2.09,2.09,0,0,1,1.79.83c0.78,1.05.93,2.81,0.93,8m2.65,0c0-6.09-.18-8.07-1.6-9.64a5.23,5.23,0,0,0-7.54,0c-1.42,1.58-1.61,3.55-1.61,9.64s0.19,8.06,1.61,9.64a5.23,5.23,0,0,0,7.54,0c1.42-1.58,1.6-3.55,1.6-9.64m-14.77,11v-22h-2.65V172h-4.89v-9.61h-2.65v22h2.65v-10h4.89v10h2.65Zm-21,0V182H129v-7.48h5v-2.37h-5v-7.39h5.84v-2.38h-8.49v22h8.49Zm-13,0v-22h-2.65V172H114.3v-9.61h-2.65v22h2.65v-10h4.88v10h2.65Zm-13.93-5.44h-2.62a4.54,4.54,0,0,1-.71,2.54,2.11,2.11,0,0,1-1.73.77,2.16,2.16,0,0,1-1.82-.83c-0.77-1.05-.9-2.81-0.9-8s0.12-7,.9-8a2.16,2.16,0,0,1,1.82-.83,2.1,2.1,0,0,1,1.73.77,4.21,4.21,0,0,1,.71,2.5h2.62a6.15,6.15,0,0,0-1.57-4.36,5.29,5.29,0,0,0-7.26.31c-1.45,1.67-1.6,3.55-1.6,9.64s0.15,8,1.6,9.64a4.74,4.74,0,0,0,3.77,1.6,4.85,4.85,0,0,0,3.4-1.2,6.14,6.14,0,0,0,1.67-4.48m-13.81-.46c0-3.46-.59-5-3.09-6l-2.47-1c-1.76-.74-2.1-1.39-2.1-3.55a3.86,3.86,0,0,1,.77-2.63,2.22,2.22,0,0,1,1.7-.68,2.17,2.17,0,0,1,1.79.74,3.88,3.88,0,0,1,.68,2.66H94c0-2-.34-3.43-1.45-4.51a5.06,5.06,0,0,0-3.65-1.27,5,5,0,0,0-3.49,1.27,5.93,5.93,0,0,0-1.67,4.51c0,3.34.74,4.57,3,5.5l2.51,1c1.79,0.74,2.16,1.51,2.16,4,0,1.45-.12,2.29-0.71,2.94a2.83,2.83,0,0,1-3.71,0c-0.59-.62-0.74-1.42-0.74-2.88H83.62c0,2.35.34,3.62,1.36,4.63a5.26,5.26,0,0,0,3.86,1.33,5.46,5.46,0,0,0,3.89-1.33c1-1,1.36-2.5,1.36-4.79m-14.37-16.1H77.06v22h2.65v-22Zm-7.54,22v-22H69.53v15l-5.63-15H61.43v22h2.65v-15l5.69,15h2.41Zm-15.28,0v-22H54.25V172H49.36v-9.61H46.71v22h2.65v-10h4.89v10H56.9Zm-14.1-5.44H40.18a4.55,4.55,0,0,1-.71,2.54,2.11,2.11,0,0,1-1.73.77,2.16,2.16,0,0,1-1.82-.83c-0.77-1.05-.9-2.81-0.9-8s0.12-7,.9-8a2.16,2.16,0,0,1,1.82-.83,2.1,2.1,0,0,1,1.73.77,4.21,4.21,0,0,1,.71,2.5H42.8a6.14,6.14,0,0,0-1.57-4.36,4.72,4.72,0,0,0-3.49-1.29,4.75,4.75,0,0,0-3.77,1.6c-1.45,1.67-1.6,3.55-1.6,9.64s0.16,8,1.6,9.64a4.75,4.75,0,0,0,3.77,1.6,4.85,4.85,0,0,0,3.4-1.2,6.14,6.14,0,0,0,1.66-4.48m-13.69,5.44V182H23.28v-7.48h5v-2.37h-5v-7.39h5.84v-2.38H20.62v22h8.49ZM17,164.72v-2.38h-10v2.38h3.71v19.62H13.3V164.72H17Z" transform="translate(-6.94 -10.61)"/>
    <rect class="cls-2" x="108.76" y="28.01" width="2.46" height="100.79"/>
  </g>
  <g>
    <path class="cls-3" d="M586.69,86.75c-7.18,0-12.64-1.53-17.29-6.25l6-6c3,3,7.05,4,11.44,4,5.45,0,8.38-2.06,8.38-5.85a5.27,5.27,0,0,0-1.46-4c-0.93-.87-2-1.33-4.19-1.66l-5.72-.79c-4.06-.6-7.05-1.86-9.18-3.93-2.26-2.26-3.39-5.32-3.39-9.31,0-8.45,6.25-14.37,16.49-14.37,6.52,0,11.24,1.6,15.3,5.52L597.2,49.9c-3-2.86-6.59-3.26-9.71-3.26-4.92,0-7.31,2.73-7.31,6a4.57,4.57,0,0,0,1.4,3.39A8.14,8.14,0,0,0,586,57.88l5.59,0.8c4.32,0.6,7,1.79,9,3.66,2.53,2.39,3.66,5.86,3.66,10C604.25,81.56,596.6,86.75,586.69,86.75Z" transform="translate(-6.94 -10.61)"/>
    <path class="cls-3" d="M631.05,47.24V86.35h-9.25V47.24H609.44V39h34v8.25H631.05Z" transform="translate(-6.94 -10.61)"/>
    <path class="cls-3" d="M667.64,86.75c-9.71,0-17.43-6.59-17.43-16.63V39h9.25v30.8c0,5.45,3.19,8.71,8.18,8.71s8.25-3.26,8.25-8.71V39h9.18V70.12C685.06,80.16,677.35,86.75,667.64,86.75Z" transform="translate(-6.94 -10.61)"/>
    <path class="cls-3" d="M725,81.83c-3.13,3.13-7.59,4.52-12.51,4.52H695.38V39h17.09c4.92,0,9.38,1.4,12.51,4.52,5.32,5.32,4.79,11.84,4.79,19S730.3,76.5,725,81.83Zm-6.45-31.66c-1.6-1.93-3.73-2.93-6.92-2.93h-7V78.1h7c3.19,0,5.32-1,6.92-2.93,1.73-2.13,2-5.52,2-12.7S720.25,52.29,718.52,50.16Z" transform="translate(-6.94 -10.61)"/>
    <path class="cls-3" d="M739.21,86.35V39h9.25V86.35h-9.25Z" transform="translate(-6.94 -10.61)"/>
    <path class="cls-3" d="M776.19,86.75c-9.71,0-17.43-6.59-17.43-16.63V39H768v30.8c0,5.45,3.19,8.71,8.18,8.71s8.25-3.26,8.25-8.71V39h9.18V70.12C793.62,80.16,785.9,86.75,776.19,86.75Z" transform="translate(-6.94 -10.61)"/>
    <path class="cls-3" d="M837.59,86.35V58.75l-9,18h-6.25l-9.11-18v27.6h-9.25V39H813L825.41,64.6,837.72,39h9.11V86.35h-9.25Z" transform="translate(-6.94 -10.61)"/>
  </g>
  <g>
    <path class="cls-1" d="M757.17,122.69h-8.6v16.82h-8.72V94.83h17.32c9.22,0,14.75,6.34,14.75,13.93S766.39,122.69,757.17,122.69Zm-0.44-20.08h-8.16v12.24h8.16c4,0,6.46-2.45,6.46-6.09S760.68,102.61,756.73,102.61Z" transform="translate(-6.94 -10.61)"/>
    <path class="cls-1" d="M779.26,139.51V94.83H788v36.9h20.27v7.78h-29Z" transform="translate(-6.94 -10.61)"/>
    <path class="cls-1" d="M830.34,139.89c-9.16,0-16.44-6.21-16.44-15.69V94.83h8.72v29.05c0,5.15,3,8.22,7.72,8.22s7.78-3.08,7.78-8.22V94.83h8.66V124.2C846.79,133.67,839.51,139.89,830.34,139.89Z" transform="translate(-6.94 -10.61)"/>
    <path class="cls-1" d="M868.81,139.89c-6.78,0-11.92-1.44-16.32-5.9l5.65-5.65c2.82,2.82,6.65,3.77,10.79,3.77,5.15,0,7.91-1.95,7.91-5.52a5,5,0,0,0-1.38-3.77,6.67,6.67,0,0,0-4-1.57l-5.4-.75c-3.83-.56-6.65-1.76-8.66-3.7-2.14-2.14-3.2-5-3.2-8.79,0-8,5.9-13.55,15.56-13.55,6.15,0,10.61,1.5,14.44,5.21l-5.52,5.46c-2.83-2.7-6.21-3.07-9.16-3.07-4.65,0-6.9,2.57-6.9,5.65a4.31,4.31,0,0,0,1.32,3.2,7.66,7.66,0,0,0,4.14,1.76l5.27,0.75c4.08,0.57,6.65,1.7,8.53,3.45,2.39,2.26,3.45,5.52,3.45,9.48C885.39,135,878.17,139.89,868.81,139.89Z" transform="translate(-6.94 -10.61)"/>
  </g>
  <g>
    <rect class="cls-3" x="914.96" y="28.4" width="18.93" height="18.94"/>
    <rect class="cls-3" x="886.55" width="18.93" height="18.94"/>
    <rect class="cls-3" x="886.55" y="56.81" width="18.93" height="18.94"/>
    <rect class="cls-1" x="886.55" y="28.4" width="18.93" height="18.94"/>
    <rect class="cls-3" x="858.14" y="28.4" width="18.93" height="18.94"/>
  </g>
  <g>
    <path class="cls-3" d="M579.83,182.79a4.78,4.78,0,0,1-3.77,1.55H571v-22h5.07a4.77,4.77,0,0,1,3.77,1.55c1.42,1.51,1.58,3.49,1.58,9.46S581.25,181.28,579.83,182.79Zm-2-17.26a2.32,2.32,0,0,0-1.89-.84h-2.32V182H576a2.31,2.31,0,0,0,1.89-.84c0.84-1,.9-2.72.9-7.79S578.68,166.55,577.85,165.53Z" transform="translate(-6.94 -10.61)"/>
    <path class="cls-3" d="M604.51,183.13a5.1,5.1,0,0,1-3.68,1.45,5,5,0,0,1-3.65-1.45,5.25,5.25,0,0,1-1.42-3.8v-17h2.66v17.17a2.44,2.44,0,1,0,4.86,0V162.31h2.66v17A5.23,5.23,0,0,1,604.51,183.13Z" transform="translate(-6.94 -10.61)"/>
    <path class="cls-3" d="M629,184.34l-1.05-5.2h-5.11l-1,5.2H619l5.13-22h2.57l5.1,22H629Zm-3.59-17.73-2.07,10.15h4.11Z" transform="translate(-6.94 -10.61)"/>
    <path class="cls-3" d="M645,184.34v-22h2.66V182h5.84v2.38H645Z" transform="translate(-6.94 -10.61)"/>
    <path class="cls-3" d="M667.31,184.34v-22h8.51v2.38H670v7.39h5v2.38h-5V182h5.84v2.38h-8.51Z" transform="translate(-6.94 -10.61)"/>
    <path class="cls-3" d="M698.5,183.23a5.46,5.46,0,0,1-3.9,1.33,5.27,5.27,0,0,1-3.87-1.33c-1-1-1.36-2.29-1.36-4.64H692c0,1.45.16,2.26,0.74,2.87a2.82,2.82,0,0,0,3.71,0c0.59-.65.71-1.48,0.71-2.94,0-2.54-.37-3.31-2.16-4.05l-2.51-1c-2.26-.93-3-2.17-3-5.51a5.93,5.93,0,0,1,1.67-4.52,5,5,0,0,1,3.49-1.27,5.06,5.06,0,0,1,3.65,1.27c1.11,1.08,1.45,2.5,1.45,4.52h-2.66a3.88,3.88,0,0,0-.68-2.66,2.18,2.18,0,0,0-1.8-.74,2.22,2.22,0,0,0-1.7.68,3.85,3.85,0,0,0-.77,2.63c0,2.16.34,2.81,2.1,3.56l2.47,1c2.51,1,3.09,2.57,3.09,6C699.86,180.72,699.55,182.17,698.5,183.23Z" transform="translate(-6.94 -10.61)"/>
    <path class="cls-3" d="M739.49,183.23a5.46,5.46,0,0,1-3.9,1.33,5.28,5.28,0,0,1-3.87-1.33c-1-1-1.36-2.29-1.36-4.64H733c0,1.45.16,2.26,0.74,2.87a2.83,2.83,0,0,0,3.71,0c0.59-.65.71-1.48,0.71-2.94,0-2.54-.37-3.31-2.16-4.05l-2.51-1c-2.26-.93-3-2.17-3-5.51a5.93,5.93,0,0,1,1.67-4.52,5,5,0,0,1,3.5-1.27,5.06,5.06,0,0,1,3.65,1.27c1.11,1.08,1.45,2.5,1.45,4.52h-2.66a3.89,3.89,0,0,0-.68-2.66,2.17,2.17,0,0,0-1.79-.74,2.23,2.23,0,0,0-1.7.68,3.85,3.85,0,0,0-.77,2.63c0,2.16.34,2.81,2.1,3.56l2.48,1c2.51,1,3.09,2.57,3.09,6C740.85,180.72,740.54,182.17,739.49,183.23Z" transform="translate(-6.94 -10.61)"/>
    <path class="cls-3" d="M760.15,164.7v19.65h-2.66V164.7h-3.71v-2.38h10.05v2.38h-3.68Z" transform="translate(-6.94 -10.61)"/>
    <path class="cls-3" d="M786.14,183.13a5.1,5.1,0,0,1-3.68,1.45,5,5,0,0,1-3.65-1.45,5.24,5.24,0,0,1-1.42-3.8v-17H780v17.17a2.44,2.44,0,1,0,4.86,0V162.31h2.66v17A5.24,5.24,0,0,1,786.14,183.13Z" transform="translate(-6.94 -10.61)"/>
    <path class="cls-3" d="M811.29,182.79a4.78,4.78,0,0,1-3.77,1.55h-5.07v-22h5.07a4.77,4.77,0,0,1,3.77,1.55c1.42,1.51,1.58,3.49,1.58,9.46S812.71,181.28,811.29,182.79Zm-2-17.26a2.32,2.32,0,0,0-1.89-.84H805.1V182h2.32a2.32,2.32,0,0,0,1.89-.84c0.83-1,.9-2.72.9-7.79S810.14,166.55,809.31,165.53Z" transform="translate(-6.94 -10.61)"/>
    <path class="cls-3" d="M827.41,184.34v-22h2.66v22h-2.66Z" transform="translate(-6.94 -10.61)"/>
    <path class="cls-3" d="M853.73,183.13a5.1,5.1,0,0,1-3.68,1.45,5,5,0,0,1-3.65-1.45,5.24,5.24,0,0,1-1.42-3.8v-17h2.66v17.17a2.44,2.44,0,1,0,4.86,0V162.31h2.66v17A5.23,5.23,0,0,1,853.73,183.13Z" transform="translate(-6.94 -10.61)"/>
    <path class="cls-3" d="M881.26,184.34V168.66l-3.5,10.3h-1.64L872.7,168.9v15.44H870v-22h2.5L877,174.56l4.42-12.25h2.51v22h-2.66Z" transform="translate(-6.94 -10.61)"/>
  </g>
</svg>
